<svg width="129" height="64" viewBox="0 0 129 64" fill="none" xmlns="http://www.w3.org/2000/svg">
<path d="M127.329 38.1667C127.157 38.0948 126.974 38.0488 126.788 38.03C126.409 38.0103 126.032 38.0969 125.7 38.2797C125.406 38.454 125.167 38.7074 125.01 39.0112C124.558 39.6951 124.219 40.4445 123.821 41.1523C123.218 42.1243 122.531 43.0416 121.769 43.894C121.061 44.7266 120.252 45.4641 119.497 46.2729C119.434 46.3541 119.347 46.4131 119.249 46.441C119.15 46.4687 119.045 46.464 118.95 46.4275C118.877 46.3722 118.822 46.2977 118.791 46.2124C118.759 46.1272 118.752 46.0347 118.771 45.9457C118.991 43.9236 119.158 41.8897 119.431 39.8676C119.544 38.9459 119.657 38.0835 119.776 37.1379C119.925 35.8295 120.08 34.527 120.234 33.2187L121.501 23.4592C121.62 22.7693 121.656 21.4609 120.775 20.6936C120.422 20.3729 119.981 20.1657 119.509 20.099C119.038 20.0659 118.568 20.1736 118.159 20.4083C116.969 21.2765 116.553 23.1142 116.226 24.4821C115.459 27.6996 115.256 31.1074 113.71 34.0928C113.403 34.6891 113.043 35.2562 112.634 35.7879C112.362 36.1653 112.026 36.4915 111.64 36.7513C111.252 37.01 110.781 37.1139 110.32 37.0427C110.035 36.9676 109.772 36.8267 109.551 36.6316C109.33 36.4364 109.157 36.1923 109.047 35.9186C108.834 35.371 108.725 34.7879 108.726 34.2C108.635 31.3057 109.066 28.4187 109.999 25.6776C110.249 25.0205 110.429 24.3386 110.534 23.6435C110.689 22.7931 110.689 21.6037 109.94 20.8721C109.589 20.535 109.157 20.2943 108.686 20.1734C108.215 20.0526 107.721 20.0556 107.251 20.1822C106.786 20.37 106.367 20.6556 106.022 21.02C105.677 21.3843 105.415 21.8187 105.253 22.2936C104.188 24.7675 103.903 27.3725 103.564 30.0249C103.382 31.7683 102.846 33.4562 101.988 34.985C101.426 35.9555 100.755 36.8592 99.9897 37.6791C99.6142 38.0973 99.2022 38.4814 98.7587 38.8269C98.5159 39.0398 98.2329 39.202 97.9266 39.3041C97.6202 39.4063 97.2966 39.4462 96.9745 39.4216C96.6541 39.3693 96.3508 39.2411 96.0901 39.0475C95.8294 38.8541 95.6187 38.601 95.4758 38.3095C95.2049 37.7827 95.0353 37.2098 94.9762 36.6204C94.8095 35.5405 94.7458 34.4473 94.7859 33.3554C94.7618 32.1754 94.8395 31.0007 94.961 29.8328C95.3088 26.9049 95.3783 23.9584 95.5833 21.0188C95.7254 19.4166 96.0387 17.8317 96.5169 16.291C96.9137 15.036 97.5516 13.9035 98.3864 13.0018C99.0886 12.265 99.9495 11.7199 100.909 11.4073C101.869 11.0947 102.89 11.0213 103.889 11.192C105.262 11.4509 106.554 12.1134 107.599 13.0977C108.644 14.0821 109.398 15.3435 109.781 16.7277C110.05 17.5652 110.231 18.4293 110.318 19.3042C110.318 19.7025 110.292 20.1009 110.318 20.4992C110.395 19.1914 110.538 17.8886 110.745 16.5944C110.998 15.0275 111.506 13.5165 112.247 12.1225C112.915 10.9168 113.868 9.91078 114.997 9.17858C116.126 8.44639 117.404 8.00539 118.738 7.87846C120.126 7.71446 121.535 7.82701 122.881 8.20213C124.227 8.57725 125.477 9.21199 126.544 10.0767C127.611 10.9413 128.461 12.0084 129.027 13.1998C129.593 14.3911 129.858 15.6724 129.801 16.9567C129.796 17.7626 129.703 18.5659 129.524 19.3515C129.39 19.9978 129.217 20.6352 129.007 21.2598C128.859 21.7426 128.665 22.2112 128.428 22.6608L127.329 38.1667Z" fill="#005BA9"/>
<path d="M38.8813 58.191V51.4468H39.7912V54.016C39.9732 53.7613 40.2132 53.5534 40.4914 53.4097C40.7696 53.2659 41.0779 53.1904 41.391 53.1893C42.6637 53.1893 43.5617 54.1885 43.5617 55.7526C43.5617 57.3167 42.6518 58.31 41.391 58.31C41.0795 58.3074 40.7728 58.2325 40.4951 58.091C40.2175 57.9496 39.9765 57.7456 39.7912 57.4952V58.191H38.8813ZM39.7912 56.7934C39.9434 57.0118 40.1464 57.1902 40.3824 57.3135C40.6185 57.4366 40.8808 57.5011 41.1471 57.5011C42.0572 57.5011 42.622 56.7756 42.622 55.7526C42.622 54.7297 42.0572 53.9982 41.1471 53.9982C40.8798 54.0026 40.6173 54.0708 40.3814 54.197C40.1457 54.3232 39.9433 54.5037 39.7912 54.7237V56.7934Z" fill="#505759"/>
<path d="M44.8756 59.2852C45.0049 59.3343 45.1418 59.3605 45.28 59.3625C45.435 59.3785 45.5908 59.3396 45.72 59.2527C45.8493 59.1658 45.944 59.0362 45.9878 58.8867L46.2732 58.2384L44.263 53.3081H45.2563L46.7787 57.1381L48.3072 53.3081H49.2885L46.8798 59.1186C46.7739 59.441 46.5642 59.7192 46.2833 59.9097C46.0025 60.1003 45.6663 60.1922 45.3276 60.1714C45.1273 60.1706 44.9277 60.1467 44.7329 60.1L44.8756 59.2852Z" fill="#505759"/>
<path d="M53.1369 58.1911V51.4469H55.9617C56.2431 51.4266 56.5256 51.466 56.7908 51.562C57.0559 51.6581 57.2979 51.809 57.501 52.0047C57.704 52.2004 57.8636 52.4368 57.9694 52.6983C58.0751 52.9598 58.1245 53.2405 58.1147 53.5224C58.1228 53.8036 58.072 54.0833 57.9657 54.3436C57.8592 54.6041 57.6994 54.8391 57.4967 55.0341C57.2939 55.229 57.0526 55.3793 56.7883 55.4755C56.524 55.5716 56.2424 55.6114 55.9617 55.5921H54.1777V58.1911H53.1369ZM55.8487 52.3389H54.1777V54.7179H55.8785C56.0391 54.7251 56.1996 54.6997 56.3502 54.6432C56.5007 54.5866 56.6383 54.5001 56.7544 54.389C56.8706 54.2779 56.963 54.1442 57.0261 53.9963C57.0892 53.8484 57.1217 53.6892 57.1215 53.5285C57.1219 53.3649 57.0886 53.2032 57.0237 53.0531C56.9588 52.9031 56.8636 52.7681 56.7442 52.6564C56.6248 52.5449 56.4837 52.4591 56.3296 52.4044C56.1756 52.3498 56.0119 52.3276 55.8487 52.3389Z" fill="#505759"/>
<path d="M61.4095 53.1894C62.8725 53.1894 63.7884 54.3312 63.7884 55.824V56.05H59.9286C59.9517 56.4696 60.1383 56.8636 60.4487 57.1471C60.7589 57.4306 61.1679 57.5813 61.5879 57.5666C62.1285 57.563 62.6466 57.3498 63.0331 56.9718L63.4554 57.5666C62.9225 58.0578 62.217 58.3187 61.4928 58.2921C61.1543 58.305 60.8169 58.2473 60.502 58.1224C60.1872 57.9977 59.9018 57.8087 59.6641 57.5677C59.4262 57.3264 59.2412 57.0384 59.1209 56.7218C59.0006 56.4053 58.9476 56.0671 58.9652 55.7289C58.954 55.4004 59.009 55.073 59.1266 54.7662C59.2443 54.4592 59.4224 54.1791 59.6503 53.9423C59.8783 53.7055 60.1514 53.5168 60.4536 53.3874C60.7558 53.2582 61.0808 53.1908 61.4095 53.1894ZM59.9107 55.3899H62.8845C62.8869 55.1959 62.85 55.0033 62.7763 54.8238C62.7024 54.6444 62.5931 54.4817 62.4547 54.3455C62.3164 54.2094 62.1519 54.1027 61.9712 54.0317C61.7906 53.9609 61.5975 53.9272 61.4035 53.9328C61.0101 53.9343 60.6332 54.0905 60.3538 54.3675C60.0746 54.6446 59.9154 55.0203 59.9107 55.4136V55.3899Z" fill="#505759"/>
<path d="M68.1894 58.1911V57.6558C67.9854 57.8717 67.7376 58.0417 67.4629 58.1546C67.1881 58.2673 66.8924 58.3203 66.5956 58.31C66.3764 58.3205 66.1574 58.2864 65.9519 58.2099C65.7463 58.1333 65.5583 58.0159 65.3994 57.8648C65.2403 57.7136 65.1137 57.5318 65.0269 57.3302C64.9402 57.1287 64.8952 56.9118 64.8947 56.6923C64.8915 56.473 64.9342 56.2554 65.0199 56.0534C65.1057 55.8514 65.2327 55.6695 65.3928 55.5196C65.5529 55.3695 65.7427 55.2546 65.9497 55.182C66.1568 55.1096 66.3768 55.081 66.5956 55.0985C66.8924 55.0836 67.189 55.1337 67.4644 55.2458C67.7398 55.3577 67.9873 55.5288 68.1894 55.7468V54.9379C68.1894 54.3432 67.6958 53.9626 67 53.9626C66.7237 53.9635 66.4506 54.0216 66.1977 54.1331C65.9449 54.2448 65.718 54.4073 65.5309 54.6109L65.1384 53.9863C65.4015 53.7252 65.7146 53.5199 66.0591 53.383C66.4036 53.246 66.7721 53.1802 67.1427 53.1894C68.2013 53.1894 69.0993 53.6533 69.0993 54.8962V58.1911H68.1894ZM68.1894 56.2879C68.0372 56.1051 67.8446 55.96 67.6269 55.864C67.4092 55.7681 67.1722 55.7238 66.9346 55.7349C66.7964 55.7192 66.6564 55.7324 66.5235 55.7735C66.3907 55.8147 66.2678 55.883 66.1627 55.9741C66.0577 56.0652 65.9725 56.1772 65.9129 56.3029C65.8534 56.4285 65.8204 56.5651 65.8164 56.7043C65.8204 56.8433 65.8534 56.9799 65.9129 57.1056C65.9725 57.2313 66.0577 57.3432 66.1627 57.4344C66.2678 57.5255 66.3907 57.5938 66.5235 57.635C66.6564 57.6762 66.7964 57.6893 66.9346 57.6737C67.1722 57.6847 67.4092 57.6404 67.6269 57.5444C67.8446 57.4485 68.0372 57.3034 68.1894 57.1206V56.2879Z" fill="#505759"/>
<path d="M70.83 58.1911V53.3083H71.7399V54.0577C71.9224 53.8022 72.1609 53.5917 72.4371 53.4423C72.7133 53.2928 73.02 53.2084 73.3338 53.1953V54.1172C73.2289 54.1067 73.1234 54.1067 73.0185 54.1172C72.764 54.1307 72.5154 54.2006 72.2913 54.322C72.067 54.4434 71.8726 54.6131 71.722 54.819V58.2149L70.83 58.1911Z" fill="#505759"/>
<path d="M74.488 56.8884C74.9243 57.3244 75.5128 57.5739 76.1294 57.5843C76.8133 57.5843 77.1821 57.2988 77.1821 56.8884C77.1821 56.4781 76.6231 56.2403 75.9927 56.0975C75.16 55.9071 74.2085 55.6811 74.2085 54.6345C74.2085 53.8553 74.8745 53.1893 76.0699 53.1893C76.7575 53.1687 77.4258 53.4185 77.9315 53.885L77.527 54.5215C77.3418 54.326 77.1171 54.1719 76.868 54.0694C76.6189 53.967 76.351 53.9183 76.0818 53.9267C75.4871 53.9267 75.0768 54.1646 75.0768 54.5631C75.0768 54.9616 75.606 55.1578 76.2127 55.2709C77.0572 55.4611 78.0682 55.6931 78.0682 56.8172C78.0682 57.6557 77.3842 58.3098 76.0997 58.3098C75.7273 58.3265 75.3555 58.2683 75.0061 58.1385C74.6566 58.0088 74.337 57.8102 74.0657 57.5546L74.488 56.8884Z" fill="#505759"/>
<path d="M79.1566 55.7466C79.1376 55.4134 79.1878 55.0798 79.304 54.767C79.4201 54.454 79.5998 54.1685 79.8315 53.9283C80.0633 53.6882 80.3422 53.4986 80.6508 53.3714C80.9594 53.2441 81.291 53.1822 81.6246 53.1893C81.9582 53.1821 82.2895 53.2441 82.5978 53.3714C82.906 53.4986 83.1847 53.6883 83.4159 53.9286C83.6472 54.1689 83.8263 54.4545 83.9418 54.7674C84.0572 55.0802 84.1066 55.4136 84.0869 55.7466C84.1075 56.0801 84.0587 56.4141 83.9437 56.7277C83.8286 57.0413 83.6497 57.3276 83.4183 57.5686C83.1868 57.8094 82.908 57.9998 82.5993 58.1273C82.2905 58.2549 81.9587 58.3171 81.6246 58.3099C81.2907 58.3161 80.959 58.2534 80.6504 58.1255C80.3418 57.9977 80.063 57.8075 79.8313 57.5668C79.5995 57.3262 79.4201 57.0404 79.304 56.7271C79.1879 56.4139 79.1378 56.0801 79.1566 55.7466ZM83.1412 55.7466C83.1643 55.5308 83.1425 55.3124 83.0776 55.1053C83.0125 54.8981 82.9056 54.7065 82.7632 54.5426C82.621 54.3785 82.4465 54.2456 82.2506 54.1519C82.0548 54.0583 81.8417 54.0058 81.6246 53.9981C81.4077 54.0058 81.1946 54.0583 80.9988 54.1519C80.8029 54.2456 80.6284 54.3785 80.4862 54.5426C80.3438 54.7065 80.2368 54.8981 80.1719 55.1053C80.1069 55.3124 80.0852 55.5308 80.1081 55.7466C80.0852 55.9628 80.1069 56.1815 80.1719 56.3889C80.2368 56.5964 80.3437 56.7884 80.4858 56.9527C80.628 57.1172 80.8025 57.2508 80.9984 57.3451C81.1942 57.4394 81.4074 57.4925 81.6246 57.5011C81.8428 57.4941 82.0571 57.4422 82.254 57.3486C82.451 57.2549 82.6266 57.1215 82.7695 56.9567C82.9125 56.792 83.0199 56.5994 83.0849 56.3912C83.1499 56.1829 83.1711 55.9634 83.1472 55.7466H83.1412Z" fill="#505759"/>
<path d="M88.7971 58.191V55.0686C88.7971 54.2598 88.3809 53.9981 87.7563 53.9981C87.4932 54.0061 87.2355 54.074 87.0025 54.1966C86.7697 54.3192 86.5679 54.4934 86.4123 54.7058V58.191H85.5024V53.3082H86.4123V53.9981C86.6256 53.7483 86.8899 53.5469 87.1873 53.4074C87.4847 53.2679 87.8085 53.1936 88.137 53.1893C88.3503 53.1619 88.5669 53.184 88.7703 53.2535C88.9736 53.3231 89.1583 53.4385 89.31 53.5909C89.4617 53.7431 89.5764 53.9282 89.6453 54.1319C89.7141 54.3355 89.7353 54.5522 89.7072 54.7654V58.191H88.7971Z" fill="#505759"/>
</svg>