<svg width="129" height="64" viewBox="0 0 129 64" fill="none" xmlns="http://www.w3.org/2000/svg">
<path d="M127.329 38.1667C127.157 38.0948 126.974 38.0488 126.788 38.03C126.409 38.0103 126.032 38.0969 125.7 38.2797C125.406 38.454 125.167 38.7074 125.01 39.0112C124.558 39.6951 124.219 40.4445 123.821 41.1523C123.218 42.1243 122.531 43.0416 121.769 43.894C121.061 44.7266 120.252 45.4641 119.497 46.2729C119.434 46.3541 119.347 46.4131 119.249 46.441C119.15 46.4687 119.045 46.464 118.95 46.4275C118.877 46.3722 118.822 46.2977 118.791 46.2124C118.759 46.1272 118.752 46.0347 118.771 45.9457C118.991 43.9236 119.158 41.8897 119.431 39.8676C119.544 38.9459 119.657 38.0835 119.776 37.1379C119.925 35.8295 120.08 34.527 120.234 33.2187L121.501 23.4592C121.62 22.7693 121.656 21.4609 120.775 20.6936C120.422 20.3729 119.981 20.1657 119.509 20.099C119.038 20.0659 118.568 20.1736 118.159 20.4083C116.969 21.2765 116.553 23.1142 116.226 24.4821C115.459 27.6996 115.256 31.1074 113.71 34.0928C113.403 34.6891 113.043 35.2562 112.634 35.7879C112.362 36.1653 112.026 36.4915 111.64 36.7513C111.252 37.01 110.781 37.1139 110.32 37.0427C110.035 36.9676 109.772 36.8267 109.551 36.6316C109.33 36.4364 109.157 36.1923 109.047 35.9186C108.834 35.371 108.725 34.7879 108.726 34.2C108.635 31.3057 109.066 28.4187 109.999 25.6776C110.249 25.0205 110.429 24.3386 110.534 23.6435C110.689 22.7931 110.689 21.6037 109.94 20.8721C109.589 20.535 109.157 20.2943 108.686 20.1734C108.215 20.0526 107.721 20.0556 107.251 20.1822C106.786 20.37 106.367 20.6556 106.022 21.02C105.677 21.3843 105.415 21.8187 105.253 22.2936C104.188 24.7675 103.903 27.3725 103.564 30.0249C103.382 31.7683 102.846 33.4562 101.988 34.985C101.426 35.9555 100.755 36.8592 99.9897 37.6791C99.6142 38.0973 99.2022 38.4814 98.7587 38.8269C98.5159 39.0398 98.2329 39.202 97.9266 39.3041C97.6202 39.4063 97.2966 39.4462 96.9745 39.4216C96.6541 39.3693 96.3508 39.2411 96.0901 39.0475C95.8294 38.8541 95.6187 38.601 95.4758 38.3095C95.2049 37.7827 95.0353 37.2098 94.9762 36.6204C94.8095 35.5405 94.7458 34.4473 94.7859 33.3554C94.7618 32.1754 94.8395 30.9954 95.0178 29.8287C95.4342 27.7412 98.6517 19.4923 99.3535 17.3394C100.103 15.1531 100.732 12.9276 101.239 10.6726C101.692 8.65745 101.892 6.59365 101.833 4.52904C101.78 3.0779 101.465 1.47809 100.299 0.615736C99.8255 0.301032 99.2801 0.110966 98.7135 0.0631363C98.1468 0.0153197 97.5774 0.111287 97.0578 0.342164C96.0189 0.81877 95.163 1.62034 94.6194 2.62591C94.0839 3.62503 93.6839 4.69105 93.4299 5.79581C92.8338 8.07322 92.3554 10.3799 91.9967 12.7065C91.6338 14.9664 91.2592 17.2145 90.8964 19.4745C90.5872 21.3777 89.8022 28.098 89.4988 29.5194C89.1451 30.9829 88.6076 32.3956 87.899 33.7242C87.1795 35.1396 86.5073 36.5788 85.7104 37.9586C85.4823 38.4138 85.1647 38.8183 84.7767 39.148C84.575 39.3106 84.3333 39.4159 84.0768 39.4524C83.8203 39.4891 83.5588 39.4559 83.3196 39.3563C83.0597 39.1892 82.8429 38.9632 82.6869 38.6965C82.5308 38.4299 82.4399 38.1302 82.4215 37.8218C81.9993 35.5024 82.368 33.1413 82.8082 30.8576C83.2483 28.5738 85.187 18.0353 85.5974 15.6088C86.1208 12.7839 86.8879 9.99457 87.1199 7.11609C87.2864 5.04049 87.6076 2.44155 86.0554 0.782267C85.7507 0.472406 85.3738 0.243289 84.9585 0.115582C84.5431 -0.0121309 84.1026 -0.0344101 83.6765 0.0507552C82.8152 0.301659 82.0777 0.863251 81.6068 1.62677C81.0224 2.38532 80.5553 3.22732 80.2211 4.12461C79.6442 5.71482 79.1831 7.34466 78.8413 9.00137L78.6867 9.69721C78.2404 11.7438 77.901 13.8123 77.6698 15.8942C77.5467 17.0124 77.4417 18.1344 77.3545 19.2605C77.3129 19.8076 77.2534 20.3606 77.2356 20.9078C77.2754 21.3464 77.2205 21.7886 77.075 22.2043C77.0121 22.346 76.9188 22.4719 76.8015 22.5731C76.303 22.8769 75.7104 22.9869 75.1362 22.8823C72.1626 22.7931 69.5279 24.4761 67.8864 26.9086C67.0043 28.2963 66.3084 29.7939 65.8169 31.3631C65.7336 31.6307 65.6206 31.8984 65.5076 32.1719C65.1755 33.1086 64.7781 34.0208 64.3181 34.9017C63.826 35.7671 63.261 36.5888 62.6291 37.3579C62.0162 38.1586 61.3205 38.8921 60.5534 39.5465C59.7818 40.2377 58.8428 40.7155 57.8297 40.9322C57.2922 41.0005 56.7463 40.9384 56.2379 40.751C55.7298 40.5637 55.274 40.2566 54.9095 39.8558C54.2422 39.0379 53.849 38.0309 53.7855 36.9773C53.7329 36.6754 53.7921 36.3645 53.9521 36.103C54.1102 35.9544 54.2978 35.8405 54.5026 35.7688C54.7075 35.697 54.9251 35.6691 55.1415 35.6868C56.7537 35.5581 58.2979 34.9808 59.599 34.0201C60.9002 33.0595 61.9066 31.7539 62.5043 30.251C63.2307 28.4889 63.4571 26.5606 63.1584 24.6784C63.0185 23.757 62.6773 22.8778 62.1592 22.1032C61.6228 21.3456 60.8911 20.7477 60.0421 20.3725C59.1816 20.0184 58.2592 19.8398 57.3289 19.8468C56.3984 19.854 55.4789 20.047 54.6241 20.4141C51.5553 21.6453 49.557 24.3691 48.5579 28.7403L48.4449 29.1983C47.8502 31.8151 47.2138 34.5508 45.3286 36.4242C45.089 36.701 44.7856 36.9154 44.4448 37.0491C44.1039 37.1828 43.7357 37.2316 43.3719 37.1914C43.2481 37.1684 43.1307 37.1187 43.0281 37.0457C42.9253 36.9729 42.8397 36.8784 42.7771 36.7692C42.2776 35.9246 42.8129 33.9263 43.586 31.4166C43.8051 30.7762 43.9839 30.1227 44.1213 29.4599C44.1748 28.5376 43.9688 27.6186 43.5265 26.8075C43.0618 26.0495 42.3802 25.4486 41.5698 25.0828C40.7676 24.8082 39.9166 24.7049 39.072 24.7795H38.8044C38.5322 24.791 38.2597 24.763 37.9956 24.6961C37.8195 24.6562 37.6564 24.5718 37.5222 24.4511C37.3879 24.3303 37.2867 24.1771 37.2283 24.0064C37.1552 23.5957 37.1817 23.1735 37.3057 22.7752C37.3413 22.6622 37.3829 22.5076 37.4187 22.3946C37.5217 21.9827 37.4921 21.5488 37.3341 21.1547C37.176 20.7607 36.8976 20.4265 36.5384 20.2001C36.167 19.9726 35.7468 19.8368 35.3124 19.8037C34.8782 19.7707 34.4423 19.8412 34.0406 20.0097C33.2067 20.4002 32.5207 21.0488 32.084 21.8593C31.6299 22.6367 31.44 23.5402 31.5427 24.4345C31.7981 25.2532 31.8772 26.1166 31.7748 26.9681C31.4655 28.4668 30.5852 29.6919 29.6991 30.923C29.5028 31.1906 29.3125 31.5177 29.1044 31.7675C28.0168 33.3752 26.7543 34.8572 25.3398 36.1863C23.4821 37.9259 21.2059 39.1552 18.7323 39.7546C14.7418 40.6349 10.6679 39.4335 8.51497 35.8235C7.37356 33.7411 6.7303 31.4225 6.63564 29.0495C6.32955 24.4521 7.1332 19.8484 8.97886 15.6266C10.7274 11.5646 13.3263 7.49673 18.1435 6.99121C20.017 6.79494 22.1699 7.44319 23.0085 9.13222C23.6032 10.3633 23.407 11.8442 23.0085 13.1645C22.6099 14.4848 22.0688 15.7872 22.0451 17.161C22.0212 18.5348 22.7111 20.0574 24.0254 20.4557C25.3398 20.8543 26.6898 20.0276 27.4272 18.9155C28.1648 17.8033 28.4205 16.4532 28.7417 15.1568C29.4933 12.0948 30.6853 9.15794 32.2803 6.4381C33.0177 5.18324 33.8741 3.8213 33.6243 2.38802C33.528 1.87231 33.2934 1.39242 32.9458 0.99963C32.5979 0.606824 32.1501 0.315855 31.6499 0.157796C31.1449 0.0143458 30.6107 0.0105033 30.1037 0.146642C29.5969 0.282794 29.1364 0.553844 28.7714 0.930947C28.0518 1.69813 27.6949 2.89949 26.7017 3.23849C25.7086 3.57747 24.8401 2.95301 23.9897 2.49507C20.808 0.782267 16.853 0.84173 13.4988 2.2215C10.1704 3.69687 7.34784 6.11617 5.38078 9.17979C2.3979 13.5545 0.583962 18.6197 0.111516 23.8934C-0.0371719 25.738 -0.0371719 27.5916 0.111516 29.4362C0.239332 31.6141 0.62053 33.7696 1.24742 35.8593C1.88501 37.9564 2.87227 39.931 4.16753 41.6995C5.4652 43.4522 7.20296 44.8309 9.20486 45.696C11.2294 46.5065 13.401 46.8852 15.5803 46.8081C17.7624 46.7174 19.9048 46.1959 21.8844 45.2737C23.8793 44.3399 25.7283 43.1219 27.3737 41.6578C29.0574 40.2575 30.5669 38.6602 31.8699 36.8999C32.7606 35.7096 33.556 34.4509 34.2488 33.1354C34.5937 32.4693 34.9149 31.7854 35.2062 31.0895C35.282 30.7944 35.4164 30.5175 35.6013 30.2754C35.7862 30.0332 36.0179 29.8308 36.2828 29.6801C36.4491 29.5868 36.6393 29.5444 36.8297 29.5581C37.0199 29.5719 37.2019 29.6411 37.3532 29.7573C37.6783 29.9035 37.9386 30.1637 38.0847 30.4888C38.2712 31.0711 38.2587 31.6988 38.0491 32.273V32.3503C37.8945 32.8855 37.7398 33.4208 37.5496 33.9621C36.818 36.2279 36.2828 38.3036 36.705 40.3375C36.896 41.3759 37.3599 42.3448 38.0491 43.1446C38.7541 43.9147 39.7038 44.4169 40.7372 44.566C42.0749 44.7121 43.4263 44.4663 44.6268 43.8583C45.3999 43.4949 46.1171 43.0221 46.7559 42.4547C47.0866 42.1565 47.3928 41.8325 47.6718 41.4853C47.9275 41.1642 48.1654 40.6884 48.647 40.7182C48.7659 40.7295 48.8807 40.7669 48.9835 40.8274C49.0863 40.8881 49.1744 40.9706 49.2418 41.0691C49.367 41.2549 49.4708 41.4545 49.5511 41.6637C50.1853 43.0178 51.195 44.1613 52.4601 44.9583C53.7253 45.7553 55.1926 46.1724 56.6878 46.1598H57.0743C58.5503 46.1019 59.9915 45.6944 61.2791 44.9704C62.6564 44.1539 63.9234 43.1646 65.0496 42.0265C65.1445 41.9213 65.2656 41.8434 65.4005 41.8006C65.5007 41.7903 65.6018 41.8057 65.6943 41.8453C65.7868 41.8848 65.868 41.9471 65.9299 42.0265C66.0455 42.1935 66.1376 42.3756 66.2034 42.5677C66.5871 43.4726 67.1905 44.2675 67.959 44.8802C68.7275 45.4929 69.6367 45.9041 70.6044 46.0766C71.5758 46.2274 72.5695 46.1328 73.495 45.8015C74.4205 45.4701 75.2484 44.9125 75.9033 44.1794C76.1618 43.8352 76.4546 43.5183 76.7776 43.2339C76.9393 43.0963 77.1329 43.0013 77.3406 42.9577C77.5483 42.9141 77.7637 42.9232 77.9671 42.984C78.5202 43.21 78.6927 43.882 78.9366 44.4233C79.2334 45.0353 79.699 45.5496 80.2786 45.9058C80.8582 46.2619 81.5274 46.445 82.2075 46.4335C83.7534 46.3601 85.2148 45.7058 86.2992 44.6017C87.3073 43.5866 88.2377 42.4972 89.0825 41.3426C89.2281 41.1316 89.4139 40.9517 89.6296 40.8133C89.7393 40.7478 89.8647 40.7132 89.9924 40.7132C90.1202 40.7132 90.2455 40.7478 90.3552 40.8133C90.5014 40.9513 90.6083 41.1258 90.6644 41.3188C91.1257 42.3652 91.8863 43.2518 92.8503 43.8667C93.8145 44.4816 94.9391 44.7973 96.0825 44.7742C98.3239 44.637 100.43 43.6552 101.976 42.0265C102.407 41.4686 103.008 41.0675 103.689 40.8847C104.432 40.8014 104.789 41.4793 105.051 42.0741C105.315 42.7856 105.78 43.4052 106.389 43.8583C106.806 44.1597 107.285 44.3645 107.791 44.4581C108.297 44.5516 108.818 44.5316 109.315 44.3994C110.317 44.1163 111.204 43.523 111.849 42.7045C112.229 42.2347 112.443 41.6281 112.866 41.1939C113.288 40.7598 113.544 41.3367 113.585 41.7113C113.647 42.3417 113.661 42.976 113.627 43.6085C113.561 44.8633 113.347 46.1063 113.187 47.3553C113.176 47.7184 113.058 48.0702 112.848 48.3663C112.664 48.5288 112.444 48.6446 112.205 48.7036C111.967 48.7627 111.718 48.7632 111.48 48.7053C110.885 48.6221 110.356 48.5744 109.773 48.5447L109.042 48.4674C107.971 48.396 106.889 48.277 105.776 48.2414H104.777C102.91 48.1947 101.049 48.4806 99.2821 49.0859C98.0479 49.5525 96.9298 50.2819 96.0055 51.2237C95.0813 52.1653 94.3729 53.2969 93.9295 54.5395C93.5518 55.6383 93.4596 56.8151 93.6619 57.9592C93.878 59.1102 94.3952 60.1834 95.1606 61.0696C95.9345 61.9459 96.8778 62.6563 97.9337 63.1582C98.9895 63.66 100.136 63.943 101.304 63.9898C103.686 64.0769 106.055 63.6044 108.221 62.61C110.427 61.6806 112.39 60.2592 113.962 58.4542C115.534 56.6493 116.673 54.5088 117.29 52.1963C117.292 52.1471 117.307 52.099 117.334 52.0581C117.362 52.017 117.4 51.9846 117.445 51.9644C119 51.4356 120.464 50.6713 121.786 49.6985C123.098 48.7036 124.271 47.5396 125.278 46.2372C125.763 45.6058 126.213 44.9486 126.628 44.2687C127.026 43.6085 127.347 42.9007 127.728 42.2229C128.051 41.7045 128.29 41.1386 128.436 40.5457C128.51 40.244 128.522 39.9303 128.472 39.6238C128.422 39.3172 128.311 39.0238 128.144 38.7615C127.935 38.489 127.653 38.2825 127.329 38.1667ZM54.178 29.4599C54.2672 29.0734 54.3862 28.6928 54.4992 28.3419C54.8117 27.3757 55.2776 26.466 55.8789 25.6478C56.0808 25.3636 56.328 25.1145 56.6104 24.9103C56.8973 24.7079 57.2496 24.6209 57.5977 24.6665C57.882 24.7442 58.1365 24.9052 58.3283 25.1289C58.5202 25.3526 58.6406 25.6286 58.6741 25.9213C58.7522 26.9483 58.5464 27.977 58.0795 28.895C57.7083 29.7593 57.1352 30.5222 56.4083 31.1192C56.1127 31.3532 55.7915 31.5527 55.4508 31.714C55.2607 31.7919 55.0604 31.8419 54.856 31.8626H54.7788C54.6289 31.8754 54.4792 31.837 54.354 31.7539C54.2287 31.6708 54.1353 31.5478 54.0889 31.4047C54.0045 30.7479 54.051 30.0808 54.2256 29.4422M77.2891 28.4489C77.2594 28.8533 77.1582 29.2578 77.1285 29.6384C77.0987 30.1558 77.075 30.6732 77.0631 31.1906C77.0631 32.0649 77.0631 32.945 77.1345 33.8193C77.2059 34.6936 77.3782 35.4131 77.0631 36.1981C76.73 37.1942 76.134 38.0819 75.3384 38.7675C74.9397 39.103 74.5 39.3867 74.03 39.6119C73.6238 39.8152 73.1759 39.921 72.7216 39.9211C72.6086 39.9211 72.5313 39.8855 72.4183 39.8855C72.1185 39.8607 71.8301 39.759 71.5811 39.5903C71.3322 39.4215 71.1309 39.1914 70.9969 38.9221C70.7341 38.471 70.551 37.9782 70.4556 37.4649C70.0461 35.4681 70.1795 33.3979 70.8423 31.4701C71.2612 30.2602 71.9626 29.1673 72.8881 28.2824C73.7051 27.5059 74.777 27.0535 75.9033 27.0097C76.0977 26.9921 76.2936 27.0136 76.4794 27.0728C76.6653 27.1321 76.8375 27.2279 76.9857 27.3546C77.2021 27.593 77.3154 27.9072 77.301 28.2289C77.301 28.2943 77.301 28.3656 77.301 28.437M111.688 53.2906C111.583 53.5578 111.443 53.8098 111.272 54.04C111.017 54.484 110.721 54.9023 110.386 55.2889C109.87 55.8755 109.305 56.4167 108.697 56.9066C107.446 57.845 106.036 58.5483 104.534 58.9821C103.681 59.2114 102.805 59.3392 101.923 59.3628H101.732C100.727 59.3737 99.7498 59.0354 98.9668 58.4053C98.5439 58.0609 98.2469 57.5862 98.1223 57.0552C98.048 56.5034 98.1412 55.9418 98.3899 55.4435C98.8038 54.5327 99.5264 53.7976 100.43 53.368C102.148 52.6344 104.024 52.3441 105.884 52.5234L108.036 52.6424C108.631 52.6721 109.184 52.7197 109.761 52.7613C110.07 52.7613 110.356 52.7613 110.683 52.8208C110.923 52.8159 111.164 52.8258 111.403 52.8506C111.676 52.9278 111.73 53.0943 111.676 53.2906" fill="#FF6A00"/>
<path d="M38.8813 58.191V51.4468H39.7912V54.016C39.9732 53.7613 40.2132 53.5534 40.4914 53.4097C40.7696 53.2659 41.0779 53.1904 41.391 53.1893C42.6637 53.1893 43.5617 54.1885 43.5617 55.7526C43.5617 57.3167 42.6518 58.31 41.391 58.31C41.0795 58.3074 40.7728 58.2325 40.4951 58.091C40.2175 57.9496 39.9765 57.7456 39.7912 57.4952V58.191H38.8813ZM39.7912 56.7934C39.9434 57.0118 40.1464 57.1902 40.3824 57.3135C40.6185 57.4366 40.8808 57.5011 41.1471 57.5011C42.0572 57.5011 42.622 56.7756 42.622 55.7526C42.622 54.7297 42.0572 53.9982 41.1471 53.9982C40.8798 54.0026 40.6173 54.0708 40.3814 54.197C40.1457 54.3232 39.9433 54.5037 39.7912 54.7237V56.7934Z" fill="#505759"/>
<path d="M44.8756 59.2852C45.0049 59.3343 45.1418 59.3605 45.28 59.3625C45.435 59.3785 45.5908 59.3396 45.72 59.2527C45.8493 59.1658 45.944 59.0362 45.9878 58.8867L46.2732 58.2384L44.263 53.3081H45.2563L46.7787 57.1381L48.3072 53.3081H49.2885L46.8798 59.1186C46.7739 59.441 46.5642 59.7192 46.2833 59.9097C46.0025 60.1003 45.6663 60.1922 45.3276 60.1714C45.1273 60.1706 44.9277 60.1467 44.7329 60.1L44.8756 59.2852Z" fill="#505759"/>
<path d="M53.1369 58.1911V51.4469H55.9617C56.2431 51.4266 56.5256 51.466 56.7908 51.562C57.0559 51.6581 57.2979 51.809 57.501 52.0047C57.704 52.2004 57.8636 52.4368 57.9694 52.6983C58.0751 52.9598 58.1245 53.2405 58.1147 53.5224C58.1228 53.8036 58.072 54.0833 57.9657 54.3436C57.8592 54.6041 57.6994 54.8391 57.4967 55.0341C57.2939 55.229 57.0526 55.3793 56.7883 55.4755C56.524 55.5716 56.2424 55.6114 55.9617 55.5921H54.1777V58.1911H53.1369ZM55.8487 52.3389H54.1777V54.7179H55.8785C56.0391 54.7251 56.1996 54.6997 56.3502 54.6432C56.5007 54.5866 56.6383 54.5001 56.7544 54.389C56.8706 54.2779 56.963 54.1442 57.0261 53.9963C57.0892 53.8484 57.1217 53.6892 57.1215 53.5285C57.1219 53.3649 57.0886 53.2032 57.0237 53.0531C56.9588 52.9031 56.8636 52.7681 56.7442 52.6564C56.6248 52.5449 56.4837 52.4591 56.3296 52.4044C56.1756 52.3498 56.0119 52.3276 55.8487 52.3389Z" fill="#505759"/>
<path d="M61.4095 53.1894C62.8725 53.1894 63.7884 54.3312 63.7884 55.824V56.05H59.9286C59.9517 56.4696 60.1383 56.8636 60.4487 57.1471C60.7589 57.4306 61.1679 57.5813 61.5879 57.5666C62.1285 57.563 62.6466 57.3498 63.0331 56.9718L63.4554 57.5666C62.9225 58.0578 62.217 58.3187 61.4928 58.2921C61.1543 58.305 60.8169 58.2473 60.502 58.1224C60.1872 57.9977 59.9018 57.8087 59.6641 57.5677C59.4262 57.3264 59.2412 57.0384 59.1209 56.7218C59.0006 56.4053 58.9476 56.0671 58.9652 55.7289C58.954 55.4004 59.009 55.073 59.1266 54.7662C59.2443 54.4592 59.4224 54.1791 59.6503 53.9423C59.8783 53.7055 60.1514 53.5168 60.4536 53.3874C60.7558 53.2582 61.0808 53.1908 61.4095 53.1894ZM59.9107 55.3899H62.8845C62.8869 55.1959 62.85 55.0033 62.7763 54.8238C62.7024 54.6444 62.5931 54.4817 62.4547 54.3455C62.3164 54.2094 62.1519 54.1027 61.9712 54.0317C61.7906 53.9609 61.5975 53.9272 61.4035 53.9328C61.0101 53.9343 60.6332 54.0905 60.3538 54.3675C60.0746 54.6446 59.9154 55.0203 59.9107 55.4136V55.3899Z" fill="#505759"/>
<path d="M68.1894 58.1911V57.6558C67.9854 57.8717 67.7376 58.0417 67.4629 58.1546C67.1881 58.2673 66.8924 58.3203 66.5956 58.31C66.3764 58.3205 66.1574 58.2864 65.9519 58.2099C65.7463 58.1333 65.5583 58.0159 65.3994 57.8648C65.2403 57.7136 65.1137 57.5318 65.0269 57.3302C64.9402 57.1287 64.8952 56.9118 64.8947 56.6923C64.8915 56.473 64.9342 56.2554 65.0199 56.0534C65.1057 55.8514 65.2327 55.6695 65.3928 55.5196C65.5529 55.3695 65.7427 55.2546 65.9497 55.182C66.1568 55.1096 66.3768 55.081 66.5956 55.0985C66.8924 55.0836 67.189 55.1337 67.4644 55.2458C67.7398 55.3577 67.9873 55.5288 68.1894 55.7468V54.9379C68.1894 54.3432 67.6958 53.9626 67 53.9626C66.7237 53.9635 66.4506 54.0216 66.1977 54.1331C65.9449 54.2448 65.718 54.4073 65.5309 54.6109L65.1384 53.9863C65.4015 53.7252 65.7146 53.5199 66.0591 53.383C66.4036 53.246 66.7721 53.1802 67.1427 53.1894C68.2013 53.1894 69.0993 53.6533 69.0993 54.8962V58.1911H68.1894ZM68.1894 56.2879C68.0372 56.1051 67.8446 55.96 67.6269 55.864C67.4092 55.7681 67.1722 55.7238 66.9346 55.7349C66.7964 55.7192 66.6564 55.7324 66.5235 55.7735C66.3907 55.8147 66.2678 55.883 66.1627 55.9741C66.0577 56.0652 65.9725 56.1772 65.9129 56.3029C65.8534 56.4285 65.8204 56.5651 65.8164 56.7043C65.8204 56.8433 65.8534 56.9799 65.9129 57.1056C65.9725 57.2313 66.0577 57.3432 66.1627 57.4344C66.2678 57.5255 66.3907 57.5938 66.5235 57.635C66.6564 57.6762 66.7964 57.6893 66.9346 57.6737C67.1722 57.6847 67.4092 57.6404 67.6269 57.5444C67.8446 57.4485 68.0372 57.3034 68.1894 57.1206V56.2879Z" fill="#505759"/>
<path d="M70.83 58.1911V53.3083H71.7399V54.0577C71.9224 53.8022 72.1609 53.5917 72.4371 53.4423C72.7133 53.2928 73.02 53.2084 73.3338 53.1953V54.1172C73.2289 54.1067 73.1234 54.1067 73.0185 54.1172C72.764 54.1307 72.5154 54.2006 72.2913 54.322C72.067 54.4434 71.8726 54.6131 71.722 54.819V58.2149L70.83 58.1911Z" fill="#505759"/>
<path d="M74.488 56.8884C74.9243 57.3244 75.5128 57.5739 76.1294 57.5843C76.8133 57.5843 77.1821 57.2988 77.1821 56.8884C77.1821 56.4781 76.6231 56.2403 75.9927 56.0975C75.16 55.9071 74.2085 55.6811 74.2085 54.6345C74.2085 53.8553 74.8745 53.1893 76.0699 53.1893C76.7575 53.1687 77.4258 53.4185 77.9315 53.885L77.527 54.5215C77.3418 54.326 77.1171 54.1719 76.868 54.0694C76.6189 53.967 76.351 53.9183 76.0818 53.9267C75.4871 53.9267 75.0768 54.1646 75.0768 54.5631C75.0768 54.9616 75.606 55.1578 76.2127 55.2709C77.0572 55.4611 78.0682 55.6931 78.0682 56.8172C78.0682 57.6557 77.3842 58.3098 76.0997 58.3098C75.7273 58.3265 75.3555 58.2683 75.0061 58.1385C74.6566 58.0088 74.337 57.8102 74.0657 57.5546L74.488 56.8884Z" fill="#505759"/>
<path d="M79.1566 55.7466C79.1376 55.4134 79.1878 55.0798 79.304 54.767C79.4201 54.454 79.5998 54.1685 79.8315 53.9283C80.0633 53.6882 80.3422 53.4986 80.6508 53.3714C80.9594 53.2441 81.291 53.1822 81.6246 53.1893C81.9582 53.1821 82.2895 53.2441 82.5978 53.3714C82.906 53.4986 83.1847 53.6883 83.4159 53.9286C83.6472 54.1689 83.8263 54.4545 83.9418 54.7674C84.0572 55.0802 84.1066 55.4136 84.0869 55.7466C84.1075 56.0801 84.0587 56.4141 83.9437 56.7277C83.8286 57.0413 83.6497 57.3276 83.4183 57.5686C83.1868 57.8094 82.908 57.9998 82.5993 58.1273C82.2905 58.2549 81.9587 58.3171 81.6246 58.3099C81.2907 58.3161 80.959 58.2534 80.6504 58.1255C80.3418 57.9977 80.063 57.8075 79.8313 57.5668C79.5995 57.3262 79.4201 57.0404 79.304 56.7271C79.1879 56.4139 79.1378 56.0801 79.1566 55.7466ZM83.1412 55.7466C83.1643 55.5308 83.1425 55.3124 83.0776 55.1053C83.0125 54.8981 82.9056 54.7065 82.7632 54.5426C82.621 54.3785 82.4465 54.2456 82.2506 54.1519C82.0548 54.0583 81.8417 54.0058 81.6246 53.9981C81.4077 54.0058 81.1946 54.0583 80.9988 54.1519C80.8029 54.2456 80.6284 54.3785 80.4862 54.5426C80.3438 54.7065 80.2368 54.8981 80.1719 55.1053C80.1069 55.3124 80.0852 55.5308 80.1081 55.7466C80.0852 55.9628 80.1069 56.1815 80.1719 56.3889C80.2368 56.5964 80.3437 56.7884 80.4858 56.9527C80.628 57.1172 80.8025 57.2508 80.9984 57.3451C81.1942 57.4394 81.4074 57.4925 81.6246 57.5011C81.8428 57.4941 82.0571 57.4422 82.254 57.3486C82.451 57.2549 82.6266 57.1215 82.7695 56.9567C82.9125 56.792 83.0199 56.5994 83.0849 56.3912C83.1499 56.1829 83.1711 55.9634 83.1472 55.7466H83.1412Z" fill="#505759"/>
<path d="M88.7971 58.191V55.0686C88.7971 54.2598 88.3809 53.9981 87.7563 53.9981C87.4932 54.0061 87.2355 54.074 87.0025 54.1966C86.7697 54.3192 86.5679 54.4934 86.4123 54.7058V58.191H85.5024V53.3082H86.4123V53.9981C86.6256 53.7483 86.8899 53.5469 87.1873 53.4074C87.4847 53.2679 87.8085 53.1936 88.137 53.1893C88.3503 53.1619 88.5669 53.184 88.7703 53.2535C88.9736 53.3231 89.1583 53.4385 89.31 53.5909C89.4617 53.7431 89.5764 53.9282 89.6453 54.1319C89.7141 54.3355 89.7353 54.5522 89.7072 54.7654V58.191H88.7971Z" fill="#505759"/>
</svg>
